<svg width="328" height="328" viewBox="0 0 328 328" fill="none" xmlns="http://www.w3.org/2000/svg">
<g clip-path="url(#clip0_190_3492)">
<mask id="mask0_190_3492" style="mask-type:alpha" maskUnits="userSpaceOnUse" x="0" y="47" width="328" height="995">
<path d="M286.842 971.901C283.528 961.395 289.164 948.154 287.632 936.674C285.494 920.643 274.728 907.916 272.496 892.068C270.995 881.413 272.049 870.252 272.187 859.514C272.43 840.61 272.679 821.182 271.653 802.326C271.258 795.096 267.005 789.824 265.858 782.902C263.491 768.632 263.137 754.566 261.428 740.334C260.298 730.92 258.135 721.683 257.286 712.199C256.25 700.65 259.064 689.763 260.617 678.415C262.097 667.621 262.842 656.408 262.832 645.514C262.811 627.556 256.364 583.112 262.198 569.23C268.891 553.307 280.256 538.503 285.48 522.008C288.929 511.113 286.582 499.273 287.504 488.053C288.877 471.339 292.183 454.778 293.83 438.082C295.379 422.373 295.029 406.401 293.819 390.682C292.79 377.334 288.648 365.604 286.762 352.62C285.723 345.462 286.086 337.785 286.353 330.572L292.256 324.26C290.173 312.239 287.958 300.205 286.236 288.125C282.821 264.184 281.639 232.313 259.66 216.906C241.397 204.102 205.807 201.998 182.708 189.898C181.402 178.054 179.668 160.799 187.492 150.72C194.996 141.049 199.166 138.058 197.918 124.55C197.727 122.509 197.28 121.198 195.627 119.944C195.013 119.479 194.323 119.14 193.71 118.692C193.589 118.602 193.492 118.488 193.384 118.387C196.472 104.443 199.159 87.6703 198.105 73.4244C196.885 71.6532 195.769 71.1887 193.807 70.3845C190.518 61.9271 186.116 56.9359 177.727 53.2999C164.216 47.4524 148.615 46.8355 134.116 47.0296C125.395 50.5165 113.454 53.5494 107.635 61.3448C105.326 64.4401 104.12 68.5787 101.465 71.3031C100.079 78.7657 99.3923 85.9303 100.162 93.5177C100.983 101.611 105.136 112.353 103.552 120.266C102.494 125.545 99.1566 130.124 99.4754 135.76C99.6834 139.441 101.326 142.921 103.378 145.929C105.132 148.501 107.222 150.193 109.787 151.905C113.988 164.397 119.86 184.404 113.534 197.017C104.321 215.374 53.2993 219.679 38.1279 238.282C29.3447 249.051 23.4141 266.715 22.5995 280.434C22.0241 290.08 22.7104 299.872 21.4384 309.47C20.0588 319.865 16.1767 329.944 15.4662 340.416C14.8735 349.188 16.5719 357.24 14.9982 366.221C13.3622 375.58 9.06418 384.179 5.86145 393.06C2.58247 402.151 1.15441 412.13 0.436916 421.728C-1.17138 443.225 2.04521 463.873 3.85801 485.176C5.14743 500.313 5.32073 515.869 6.04516 531.085C6.56855 542.066 2.22545 553.889 5.49751 564.617C11.2687 583.535 23.6948 589.726 39.3653 598.838C43.3237 601.14 46.8418 604.069 50.7655 606.405C55.0012 632.263 56.1242 658.269 59.4656 684.179C60.8347 694.803 64.9282 705.638 65.1639 716.293C65.8052 745.242 58.4257 773.401 57.2888 802.136C56.4362 823.685 61.5487 845.937 62.4049 867.563C63.1085 885.341 62.9941 903.455 62.3009 921.222C61.8746 932.172 60.5054 943.298 61.008 954.241C61.424 963.322 64.1622 971.665 65.2263 980.549C63.1258 984.587 61.0496 988.882 58.2906 992.514C49.4796 1004.11 33.7744 1016.9 35.2198 1032.82C36.8766 1036.15 39.8298 1037.63 43.2162 1038.76C54.918 1042.66 75.8328 1042.47 86.8864 1036.88C90.0406 1035.29 92.7026 1033.22 93.7563 1029.72C94.0128 1028.86 94.1999 1028 94.4252 1027.13C94.5119 1026.79 94.6124 1026.45 94.706 1026.11L94.8689 1025.5C103.111 1023.4 110.806 1021.16 116.934 1014.84C116.882 1005.79 115.725 996.92 115.246 987.911C117.669 985.059 120.758 981.849 122.175 978.376C130.508 957.953 131.513 893.874 129.6 870.187C128.605 857.871 126.543 845.573 125.946 833.241C124.813 809.914 125.998 787.477 121.274 764.299C134.463 736.473 130.397 706.549 133.766 676.917C136.307 654.553 141.319 631.649 145.561 609.497C147 601.979 147.485 594.18 149.232 586.766C153.53 593.393 156.75 600.662 159.575 608.024C176.552 649.95 181.856 688.272 191.412 731.669C193.339 740.414 198.102 748.185 200.497 756.753C204.192 769.97 205.072 789.054 206.528 802.895C208.254 819.293 207.893 836.201 208.601 852.689C210.642 900.148 216.687 942.927 234.829 987.353C232.358 996.053 232.073 1004.27 232.361 1013.26C242.572 1018.45 252.111 1017.97 262.482 1021.41C266.877 1022.86 270.312 1027.04 274.548 1028.9C283.768 1032.93 310.96 1032.18 320.509 1028.99C322.987 1028.15 325.167 1026.95 326.315 1024.51C327.847 1021.26 327.868 1017.91 326.564 1014.59C320.003 997.835 293.622 993.412 286.839 971.908L286.842 971.901ZM63.6354 404.241C63.2056 411.042 66.1206 418.162 64.3009 424.907C63.0323 429.621 58.7862 433.357 57.5488 438.071C56.4639 442.203 59.9127 446.691 61.9231 450.144C60.4361 452.823 58.7446 455.638 57.9439 458.615C55.8954 466.216 56.2386 475.568 55.1294 483.478C52.9007 499.37 49.8366 515.231 47.0775 531.04C42.6617 530.056 37.199 519.228 34.7276 515.373C33.9651 503.249 33.6912 490.303 35.9928 478.337C38.6444 464.58 43.2578 451.378 45.5108 437.471C47.6564 424.224 46.7344 411.253 48.0966 398.04C49.0671 388.609 58.8139 357.275 62.8035 347.75C63.1709 348.28 63.5106 348.828 63.8225 349.393C65.6111 352.596 66.6787 356.856 67.8433 360.346C74.5988 380.536 64.7341 386.762 63.6354 404.241ZM246.545 517.897C244.368 513.075 236.832 485.977 236.635 480.462C237.841 478.854 239.387 476.972 239.976 475.024C241.432 470.216 235.578 463.554 233.2 459.565C233.65 449.253 235.928 438.993 236.569 428.657C237.841 408.169 239.085 387.469 239.966 366.966C240.403 356.765 238.534 341.324 241.688 331.809C243.234 333.026 243.699 334.093 244.156 335.962C248.836 355.039 246.434 369.15 247.428 387.833C247.723 393.382 249.155 398.668 249.858 404.151C251.165 414.359 251.959 424.615 253.512 434.796C255.588 448.407 269.12 501.585 262.669 511.696C259.917 516.011 255.577 516.375 250.933 517.398C249.342 518.039 248.205 518.001 246.541 517.904L246.545 517.897Z" fill="#BFBFBF"/>
</mask>
<g mask="url(#mask0_190_3492)">
<rect x="-65.728" y="-3.55957" width="440.91" height="439.324" fill="#D9D9D9"/>
</g>
</g>
<defs>
<clipPath id="clip0_190_3492">
<rect width="327.505" height="327.51" fill="white"/>
</clipPath>
</defs>
</svg>
