<svg width="328" height="328" viewBox="0 0 328 328" fill="none" xmlns="http://www.w3.org/2000/svg">
<g clip-path="url(#clip0_190_3490)">
<mask id="mask0_190_3490" style="mask-type:alpha" maskUnits="userSpaceOnUse" x="26" y="59" width="276" height="929">
<path d="M300.79 963.254C299.396 955.982 296.851 948.863 294.913 941.724C293.046 934.861 292.125 927.806 290.555 920.882C288.935 913.749 286.494 906.769 285.316 899.541C283.358 887.463 282.68 874.936 281.366 862.763C277.984 831.461 274.956 799.844 270.261 768.72C267.624 751.255 262.415 735.048 258.027 718.031C253.649 701.068 249.78 681.574 248.13 664.149C247.053 652.827 248.427 641.353 249.011 630.031C249.986 611.431 250.334 592.274 247.647 573.816C250.334 572.259 252.866 570.848 254.53 568.128C257.392 563.449 262.54 552.502 261.197 547.006C262.621 542.648 258.55 531.785 257.392 526.968C254.695 515.71 255.114 505.87 255.279 494.406C255.782 460.599 258.847 426.434 258.112 392.677C257.784 377.79 253.065 363.099 253.159 348.368C253.23 335.942 257.895 278.748 255.458 272.223C258.689 270.43 263.776 267.47 265.528 264.205C265.659 261.947 256.012 238.287 254.432 234.594C249.693 223.458 244.761 218.327 233.715 213.871C232.024 208.898 227.018 205.664 225.297 200.753C224.713 199.102 224.395 197.482 225.141 195.851L228.382 198.417C228.247 196.368 227.768 196.054 226.546 194.471C226.576 194.312 226.616 194.15 226.657 193.991C227.889 189.573 226.873 185.38 226.144 180.951C226.319 181.133 226.502 181.316 226.677 181.505C228.79 183.783 232.267 191.568 232.061 194.663C232.841 185.849 229.958 172.91 227.825 164.282C225.641 155.411 222.265 146.762 219.683 137.989C216.884 128.513 214.903 117.347 210.741 108.435C210.187 107.257 209.336 106.48 208.249 105.815C209.819 101.788 206.916 94.2502 205.235 90.375C200.158 78.6512 189.207 66.4988 177.278 61.8809C166.357 57.6478 149.003 58.1406 138.349 62.9577C126.811 68.1799 120.381 78.8302 116.208 90.3041C112.927 99.3306 110.703 117.259 106.044 124.01C107.317 132.625 94.8672 154.263 92.0654 163.944C90.31 169.987 89.851 175.678 90.0029 181.923C90.0839 185.012 89.9927 188.732 91.4679 191.51L93.0983 191.227C95.8056 186.025 91.775 177.889 94.4114 173.629C97.1694 177.167 96.2074 183.324 95.674 187.483C95.2217 191 93.6452 196.104 94.6781 199.46L97.6724 202.9L98.0943 199.457C99.6235 199.966 101.109 203.896 101.858 205.411C102.79 207.281 103.796 209.462 103.313 211.575C96.177 218.651 72.905 220.453 63.8818 228.99C51.2366 240.954 51.4425 263.868 36.8191 274.68L36.2047 275.126C41.7104 277.735 48.3369 281.033 53.0021 284.922C53.4544 285.816 53.8426 286.758 53.9473 287.761C55.2705 300.413 53.424 346.916 50.072 358.893C46.5647 371.41 40.556 382.226 39.2125 395.485C36.1575 425.539 44.2996 521.749 26.9385 541.77C28.2212 542.732 29.1631 543.779 30.0138 545.122C33.2949 550.287 37.3153 559.989 35.8705 566.193C43.2328 567.972 53.9101 571.358 61.3737 569.279C63.6489 568.647 64.0304 568.161 65.168 566.264C64.4794 563.678 61.0463 562.5 60.7593 561.282C59.4158 555.405 63.9797 552.34 58.8825 539.792C59.723 540.599 60.5838 541.436 61.3029 542.361C65.8769 548.309 68.7057 566.548 70.5117 574.315C80.4396 616.832 86.9208 650.632 89.6383 694.55C91.289 721.306 89.4628 747.19 93.6283 773.932C97.5036 798.828 103.185 823.774 108.795 848.342C112.333 863.881 117.788 880.455 118.129 896.402C118.396 908.541 117.565 925.031 113.217 936.366C110.314 943.942 103.917 950.642 103.289 958.963C102.878 964.486 105.474 974.265 109.126 978.478C115.013 982.245 127.8 981.628 134.653 980.794C138.282 980.352 143.771 979.258 145.965 975.98C147.113 974.255 147.123 970.684 147.318 968.601C148.476 955.807 150.569 933.22 149.401 920.778C148.088 906.86 143.075 893.35 140.631 879.618C137.536 862.112 137.526 842.729 137.205 824.952C136.908 807.936 138.322 790.99 138.241 773.986C138.16 756.2 136.601 738.933 137.688 721.093C137.995 715.989 138.181 710.699 139.122 705.676C140.557 698.044 143.052 690.435 143.244 682.627C143.787 660.459 139.132 638.213 139.359 615.877C139.595 592.021 143.42 567.388 141.819 543.678C141.377 537.031 139.676 530.712 138.69 524.143L140.516 522.428C141.87 522.556 142.464 522.502 143.571 523.282C157.479 533.058 185.649 631.516 190.787 652.806C194.571 668.51 195.587 684.649 200.323 700.198C203.615 710.996 210.015 720.671 213.522 731.382C220.311 752.163 222.63 774.354 228.75 795.395C231.612 805.218 235.846 814.646 239.181 824.314C245.294 842.081 254.442 871.537 257.649 889.748C259.712 901.459 257.835 912.19 257.332 923.907C256.994 931.705 257.528 939.526 257.116 947.324C256.704 955.186 255.394 963.315 256.95 971.112C257.852 975.632 259.053 981.388 263.165 983.994C270.507 988.662 283.922 988.521 292.199 986.519C294.846 985.878 296.884 985.044 298.393 982.657C296.868 976.51 302.302 971.136 300.794 963.247L300.79 963.254ZM92.7102 381.436C91.1709 387.806 78.7821 417.262 74.2519 420.503C75.2174 423.237 72.8173 427.726 72.0274 430.572C69.31 440.335 66.8592 450.259 65.0633 460.238C62.8388 472.613 61.4446 493.424 56.4486 504.236C58.2006 498.808 55.6992 485.589 56.7457 478.487C58.1905 468.64 71.656 418.356 71.3286 414.855C75.9938 406.713 79.7475 393.281 81.3476 384.032C83.0287 374.313 81.1316 363.352 81.6548 353.418C81.9418 348.054 85.9824 324.188 84.9157 321.163C84.8043 320.846 84.6592 320.542 84.5275 320.231C89.5337 328.438 95.0698 371.754 92.7102 381.432V381.436Z" fill="#BFBFBF"/>
</mask>
<g mask="url(#mask0_190_3490)">
<rect x="-26.104" y="-21.1182" width="376.647" height="375.293" fill="#D9D9D9"/>
</g>
</g>
<defs>
<clipPath id="clip0_190_3490">
<rect width="328" height="328" fill="white"/>
</clipPath>
</defs>
</svg>
