<svg width="321" height="544" viewBox="0 0 321 544" fill="none" xmlns="http://www.w3.org/2000/svg">
<mask id="mask0_188_3459" style="mask-type:alpha" maskUnits="userSpaceOnUse" x="-40" y="-104" width="363" height="648">
<rect x="-39.6245" y="-104" width="362" height="648" fill="#D9D9D9"/>
</mask>
<g mask="url(#mask0_188_3459)">
<path d="M320.575 1058.88C318.943 1050.36 315.964 1042.03 313.696 1033.67C311.51 1025.64 310.431 1017.38 308.594 1009.28C306.697 1000.93 303.84 992.754 302.461 984.293C300.169 970.154 299.375 955.49 297.838 941.24C293.878 904.597 290.334 867.586 284.837 831.152C281.751 810.707 275.653 791.735 270.516 771.815C265.391 751.958 260.862 729.137 258.93 708.739C257.669 695.485 259.278 682.054 259.961 668.8C261.103 647.026 261.51 624.601 258.365 602.994C261.51 601.172 264.474 599.52 266.422 596.335C269.773 590.858 275.799 578.043 274.227 571.61C275.894 566.508 271.129 553.792 269.773 548.153C266.616 534.974 267.106 523.455 267.3 510.036C267.888 470.46 271.476 430.466 270.615 390.949C270.232 373.523 264.707 356.325 264.818 339.08C264.901 324.535 270.362 257.582 267.509 249.944C271.291 247.845 277.246 244.38 279.297 240.559C279.451 237.915 268.157 210.218 266.308 205.895C260.76 192.859 254.986 186.852 242.057 181.636C240.077 175.815 234.217 172.03 232.201 166.28C231.518 164.348 231.146 162.451 232.019 160.542L235.813 163.545C235.655 161.147 235.094 160.779 233.663 158.926C233.699 158.74 233.746 158.551 233.794 158.365C235.236 153.192 234.047 148.284 233.193 143.1C233.399 143.313 233.612 143.527 233.817 143.748C236.291 146.415 240.361 155.528 240.12 159.151C241.033 148.834 237.658 133.687 235.161 123.587C232.604 113.202 228.653 103.078 225.63 92.8075C222.354 81.7153 220.034 68.6433 215.162 58.211C214.514 56.8319 213.518 55.923 212.246 55.1446C214.083 50.4303 210.685 41.6063 208.717 37.0699C202.774 23.3459 189.955 9.12003 175.989 3.71421C163.206 -1.24112 142.891 -0.664182 130.419 4.97478C116.913 11.0879 109.385 23.5553 104.501 36.9869C100.66 47.5535 98.0556 68.5406 92.6023 76.4438C94.0921 86.5284 79.5185 111.858 76.2386 123.191C74.1838 130.265 73.6464 136.927 73.8242 144.238C73.9191 147.854 73.8123 152.208 75.5392 155.46L77.4478 155.129C80.617 149.039 75.8988 139.516 78.985 134.529C82.2134 138.67 81.0873 145.878 80.463 150.746C79.9335 154.864 78.088 160.839 79.2972 164.767L82.8023 168.793L83.2963 164.763C85.0863 165.359 86.825 169.959 87.7023 171.733C88.7929 173.922 89.9705 176.475 89.4054 178.949C81.0517 187.231 53.8092 189.342 43.2465 199.335C28.4438 213.34 28.6848 240.163 11.5664 252.821L10.8472 253.342C17.2923 256.397 25.0493 260.257 30.5105 264.81C31.04 265.857 31.4944 266.959 31.6169 268.133C33.166 282.944 31.0044 337.381 27.0805 351.402C22.9747 366.054 15.9409 378.715 14.3681 394.237C10.7919 429.419 20.3232 542.044 0 565.481C1.50162 566.607 2.60416 567.832 3.59997 569.405C7.44095 575.451 12.1473 586.808 10.456 594.071C19.0745 596.153 31.5735 600.117 40.3105 597.683C42.9739 596.944 43.4204 596.375 44.7521 594.154C43.946 591.127 39.9272 589.748 39.5913 588.321C38.0185 581.441 43.3611 577.853 37.3942 563.165C38.3781 564.11 39.3858 565.09 40.2275 566.172C45.582 573.135 48.8934 594.486 51.0076 603.578C62.6293 653.349 70.2164 692.917 73.3974 744.327C75.3298 775.648 73.192 805.949 78.0683 837.254C82.6047 866.397 89.2553 895.599 95.8229 924.359C99.9642 942.548 106.35 961.951 106.749 980.618C107.061 994.828 106.089 1014.13 101 1027.4C97.6011 1036.27 90.1128 1044.11 89.3778 1053.85C88.8957 1060.32 91.9345 1071.77 96.2101 1076.7C103.102 1081.11 118.071 1080.38 126.092 1079.41C130.34 1078.89 136.766 1077.61 139.334 1073.77C140.678 1071.75 140.69 1067.57 140.919 1065.14C142.274 1050.16 144.724 1023.72 143.357 1009.15C141.82 992.861 135.952 977.046 133.091 960.971C129.467 940.478 129.455 917.788 129.08 896.978C128.732 877.058 130.388 857.221 130.293 837.317C130.198 816.496 128.372 796.283 129.645 775.399C130.004 769.424 130.222 763.232 131.324 757.352C133.004 748.417 135.924 739.51 136.149 730.37C136.785 704.42 131.336 678.379 131.601 652.231C131.877 624.305 136.355 595.47 134.482 567.713C133.964 559.933 131.972 552.535 130.818 544.845L132.956 542.838C134.541 542.988 135.236 542.925 136.532 543.838C152.813 555.282 185.789 670.539 191.804 695.462C196.234 713.844 197.423 732.737 202.967 750.938C206.82 763.58 214.312 774.905 218.418 787.443C226.365 811.77 229.08 837.747 236.244 862.378C239.595 873.877 244.55 884.914 248.454 896.232C255.611 917.029 266.32 951.511 270.074 972.83C272.488 986.538 270.291 999.1 269.702 1012.82C269.307 1021.94 269.931 1031.1 269.449 1040.23C268.967 1049.43 267.434 1058.95 269.256 1068.08C270.311 1073.37 271.717 1080.1 276.531 1083.15C285.125 1088.62 300.829 1088.45 310.518 1086.11C313.617 1085.36 316.003 1084.38 317.77 1081.59C315.983 1074.39 322.346 1068.1 320.579 1058.87L320.575 1058.88ZM76.9934 377.791C75.1915 385.247 60.689 419.729 55.3859 423.523C56.5161 426.724 53.7065 431.979 52.7818 435.31C49.6008 446.738 46.7319 458.356 44.6296 470.037C42.0255 484.524 40.3934 508.886 34.545 521.543C36.5959 515.188 33.6678 499.714 34.8928 491.4C36.5841 479.873 52.3471 421.009 51.9638 416.912C57.425 407.38 61.8191 391.657 63.6922 380.829C65.6601 369.453 63.4394 356.622 64.0519 344.992C64.3878 338.713 69.1178 310.775 67.8691 307.234C67.7387 306.863 67.5688 306.507 67.4147 306.144C73.275 315.75 79.7556 366.457 76.9934 377.787V377.791Z" fill="#BFBFBF"/>
</g>
</svg>
