<svg width="332" height="550" viewBox="0 0 332 550" fill="none" xmlns="http://www.w3.org/2000/svg">
<mask id="mask0_188_3460" style="mask-type:alpha" maskUnits="userSpaceOnUse" x="-29" y="-98" width="363" height="648">
<rect x="-28.5" y="-98" width="362" height="648" fill="#D9D9D9"/>
</mask>
<g mask="url(#mask0_188_3460)">
<path d="M290.842 932.19C287.528 921.684 293.164 908.443 291.632 896.964C289.494 880.933 278.728 868.205 276.496 852.357C274.995 841.703 276.049 830.541 276.187 819.803C276.43 800.899 276.679 781.471 275.653 762.615C275.258 755.385 271.005 750.113 269.858 743.191C267.491 728.921 267.137 714.855 265.428 700.623C264.298 691.209 262.135 681.972 261.286 672.488C260.25 660.939 263.064 650.052 264.617 638.704C266.097 627.91 266.842 616.697 266.832 605.803C266.811 587.845 260.364 543.402 266.198 529.52C272.891 513.596 284.256 498.792 289.48 482.297C292.929 471.403 290.582 459.562 291.504 448.342C292.877 431.628 296.183 415.067 297.83 398.371C299.379 382.662 299.029 366.69 297.819 350.971C296.79 337.623 292.648 325.893 290.762 312.909C289.723 305.751 290.086 298.074 290.353 290.861L296.256 284.549C294.173 272.528 291.958 260.494 290.236 248.414C286.821 224.473 285.639 192.602 263.66 177.195C245.397 164.391 209.807 162.287 186.708 150.187C185.402 138.343 183.668 121.088 191.492 111.009C198.996 101.338 203.166 98.3469 201.918 84.8393C201.727 82.7977 201.28 81.4875 199.627 80.2327C199.013 79.7683 198.323 79.4286 197.71 78.9814C197.589 78.8913 197.492 78.7769 197.384 78.6764C200.472 64.7321 203.159 47.9593 202.105 33.7134C200.885 31.9422 199.769 31.4778 197.807 30.6736C194.518 22.2162 190.116 17.2249 181.727 13.5889C168.216 7.7415 152.615 7.12453 138.116 7.31863C129.395 10.8056 117.454 13.8385 111.635 21.6339C109.326 24.7291 108.12 28.8677 105.465 31.5921C104.079 39.0548 103.392 46.2193 104.162 53.8067C104.983 61.9002 109.136 72.6418 107.552 80.5551C106.494 85.834 103.157 90.4128 103.475 96.0488C103.683 99.7299 105.326 103.21 107.378 106.219C109.132 108.79 111.222 110.482 113.787 112.194C117.988 124.686 123.86 144.693 117.534 157.306C108.321 175.663 57.2993 179.968 42.1279 198.571C33.3447 209.34 27.4141 227.004 26.5995 240.723C26.0241 250.369 26.7104 260.161 25.4384 269.759C24.0588 280.154 20.1767 290.233 19.4662 300.705C18.8735 309.477 20.5719 317.529 18.9982 326.51C17.3622 335.869 13.0642 344.468 9.86145 353.349C6.58247 362.44 5.15441 372.419 4.43692 382.017C2.82862 403.514 6.04521 424.162 7.85801 445.465C9.14743 460.602 9.32073 476.158 10.0452 491.375C10.5686 502.355 6.22545 514.178 9.49751 524.906C15.2687 543.824 27.6948 550.015 43.3653 559.127C47.3237 561.429 50.8418 564.358 54.7655 566.694C59.0012 592.552 60.1242 618.558 63.4656 644.468C64.8347 655.092 68.9282 665.927 69.1639 676.582C69.8052 705.531 62.4257 733.69 61.2888 762.425C60.4362 783.974 65.5487 806.226 66.4049 827.852C67.1085 845.63 66.9941 863.744 66.3009 881.511C65.8746 892.461 64.5054 903.587 65.008 914.53C65.424 923.611 68.1622 931.954 69.2263 940.838C67.1258 944.876 65.0496 949.171 62.2906 952.803C53.4796 964.401 37.7744 977.184 39.2198 993.108C40.8766 996.442 43.8298 997.919 47.2162 999.049C58.918 1002.95 79.8328 1002.76 90.8864 997.17C94.0406 995.576 96.7026 993.513 97.7563 990.009C98.0128 989.153 98.1999 988.286 98.4252 987.423C98.5119 987.08 98.6124 986.744 98.706 986.401L98.8689 985.787C107.111 983.694 114.806 981.444 120.934 975.129C120.882 966.075 119.725 957.209 119.246 948.2C121.669 945.348 124.758 942.138 126.175 938.665C134.508 918.242 135.513 854.163 133.6 830.476C132.605 818.16 130.543 805.863 129.946 793.53C128.813 770.203 129.998 747.766 125.274 724.588C138.463 696.762 134.397 666.838 137.766 637.206C140.307 614.842 145.319 591.938 149.561 569.786C151 562.268 151.485 554.469 153.232 547.055C157.53 553.682 160.75 560.951 163.575 568.313C180.552 610.239 185.856 648.561 195.412 691.958C197.339 700.703 202.102 708.474 204.497 717.042C208.192 730.259 209.072 749.343 210.528 763.184C212.254 779.582 211.893 796.49 212.601 812.978C214.642 860.437 220.687 903.216 238.829 947.642C236.358 956.342 236.073 964.564 236.361 973.548C246.572 978.741 256.111 978.262 266.482 981.697C270.877 983.153 274.312 987.326 278.548 989.184C287.768 993.219 314.96 992.473 324.509 989.274C326.987 988.442 329.167 987.24 330.315 984.803C331.847 981.548 331.868 978.196 330.564 974.876C324.003 958.124 297.622 953.701 290.839 932.197L290.842 932.19ZM67.6354 364.53C67.2056 371.331 70.1206 378.451 68.3009 385.196C67.0323 389.91 62.7862 393.646 61.5488 398.36C60.4639 402.492 63.9127 406.98 65.9231 410.433C64.4361 413.112 62.7446 415.927 61.9439 418.904C59.8954 426.505 60.2386 435.857 59.1294 443.767C56.9007 459.659 53.8366 475.52 51.0775 491.329C46.6617 490.345 41.199 479.517 38.7276 475.662C37.9651 463.538 37.6912 450.592 39.9928 438.627C42.6444 424.869 47.2578 411.667 49.5108 397.761C51.6564 384.513 50.7344 371.543 52.0966 358.33C53.0671 348.898 62.8139 317.564 66.8035 308.039C67.1709 308.569 67.5106 309.117 67.8225 309.682C69.6111 312.885 70.6787 317.145 71.8433 320.635C78.5988 340.825 68.7341 347.051 67.6354 364.53ZM250.545 478.186C248.368 473.364 240.832 446.266 240.635 440.751C241.841 439.143 243.387 437.261 243.976 435.313C245.432 430.505 239.578 423.843 237.2 419.854C237.65 409.542 239.928 399.282 240.569 388.946C241.841 368.458 243.085 347.758 243.966 327.255C244.403 317.054 242.534 301.613 245.688 292.098C247.234 293.315 247.699 294.382 248.156 296.251C252.836 315.328 250.434 329.439 251.428 348.122C251.723 353.671 253.155 358.957 253.858 364.44C255.165 374.648 255.959 384.905 257.512 395.085C259.588 408.696 273.12 461.874 266.669 471.985C263.917 476.3 259.577 476.664 254.933 477.687C253.342 478.328 252.205 478.29 250.541 478.193L250.545 478.186Z" fill="#BFBFBF"/>
</g>
</svg>
