<svg width="125" height="125" viewBox="0 0 125 125" fill="none" xmlns="http://www.w3.org/2000/svg">
<path d="M12.0814 93.2698C12.5617 92.9948 17.9832 90.6996 44.9542 103.273C44.8756 103.38 44.8422 103.431 44.8422 103.431C44.8422 103.431 16.8032 112.874 11.3095 101.241C9.66902 97.7778 10.1391 95.3931 12.0345 93.2967L12.0814 93.2698Z" fill="#228DA5"/>
<path d="M102.733 98.0285C96.8735 102.955 87.6842 106.53 78.8174 101.776C80.2185 100.88 81.6658 99.958 83.1418 99.0041C92.0464 93.2827 99.8899 97.1109 102.733 98.0285Z" fill="#228DA5"/>
<path d="M113.229 37.4411C119.215 87.2928 104.988 96.3402 103.404 97.7145C102.946 98.1124 102.76 98.0834 102.067 97.9049L102.055 97.9117C99.1205 97.1338 92.0461 93.2819 83.1411 99.0027C81.6651 99.9566 80.2174 100.879 78.8167 101.774C69.7327 107.535 62.3971 111.595 57.1122 109.239C52.6295 106.952 48.5876 104.973 44.9539 103.273C17.9829 90.6994 12.5614 92.9945 12.0811 93.2696C12.6384 92.966 17.7513 90.1319 24.6358 85.1479C24.6592 85.1344 24.6827 85.1211 24.6877 85.1027C33.8897 78.4338 46.2131 67.9245 55.0712 54.4057C61.1014 45.2128 67.0007 21.9079 78.3831 17.3352C101.776 8.60848 112.257 27.301 113.229 37.4411Z" fill="#29B8D8"/>
<path d="M87.3621 36.5676C88.0883 34.6502 88.0175 32.8461 87.204 32.538C86.3906 32.2299 85.1425 33.5346 84.4164 35.452C83.6902 37.3694 83.761 39.1736 84.5744 39.4816C85.3879 39.7897 86.636 38.485 87.3621 36.5676Z" fill="white"/>
<path d="M102.257 39.0134C102.772 37.0287 102.507 35.2428 101.665 35.0245C100.823 34.8062 99.7228 36.2381 99.2082 38.2228C98.6936 40.2075 98.9589 41.9934 99.8009 42.2117C100.643 42.43 101.743 40.9981 102.257 39.0134Z" fill="white"/>
<path d="M93.1908 46.3007C93.0688 46.3006 92.9505 46.2588 92.8555 46.1821C92.7606 46.1055 92.6947 45.9987 92.6687 45.8795C92.5734 45.4478 92.1493 44.1705 91.4767 43.9807C90.8041 43.7908 89.4848 44.5279 88.9511 44.9145C88.8362 44.9977 88.693 45.0319 88.5529 45.0095C88.4128 44.9871 88.2874 44.9099 88.2042 44.7951C88.121 44.6802 88.0868 44.5369 88.1093 44.3969C88.1317 44.2568 88.2088 44.1314 88.3237 44.0482C88.5341 43.8959 90.418 42.5706 91.7671 42.9512C93.1741 43.3482 93.6628 45.4173 93.7137 45.652C93.7308 45.7301 93.7301 45.8111 93.7117 45.8889C93.6933 45.9667 93.6577 46.0394 93.6075 46.1016C93.5573 46.1639 93.4938 46.2141 93.4217 46.2485C93.3495 46.283 93.2706 46.3008 93.1906 46.3007H93.1908Z" fill="white"/>
</svg>
