<svg width="180" height="179" viewBox="0 0 180 179" fill="none" xmlns="http://www.w3.org/2000/svg">
<path d="M67.9801 46.5208C67.9801 38.6121 74.3882 32.2008 82.2931 32.2008H146.701C154.606 32.2008 161.014 38.6121 161.014 46.5208V146.761C161.014 154.67 154.606 161.081 146.701 161.081H82.2931C74.3882 161.081 67.9801 154.67 67.9801 146.761V46.5208Z" fill="white"/>
<path d="M157.436 46.5208C157.436 40.5892 152.63 35.7808 146.701 35.7808H82.2931C76.3644 35.7808 71.5583 40.5892 71.5583 46.5208V146.761C71.5583 152.692 76.3644 157.501 82.2931 157.501H146.701C152.63 157.501 157.436 152.692 157.436 146.761V46.5208ZM164.593 146.761C164.593 156.647 156.583 164.661 146.701 164.661H82.2931C72.412 164.661 64.4018 156.647 64.4018 146.761V46.5208C64.4018 36.6349 72.412 28.6208 82.2931 28.6208H146.701C156.583 28.6208 164.593 36.6349 164.593 46.5208V146.761Z" fill="#2EBFE0"/>
<path d="M6.5074 45.9716C4.46148 38.3324 8.99271 30.4802 16.6282 28.4333L78.8419 11.755C86.4774 9.70807 94.3258 14.2415 96.3717 21.8808L122.303 118.705C124.349 126.344 119.818 134.197 112.182 136.244L49.9684 152.922C42.333 154.969 34.4846 150.435 32.4387 142.796L6.5074 45.9716Z" fill="white"/>
<path d="M92.9154 22.8073C91.3809 17.0779 85.4947 13.6778 79.7681 15.213L17.5543 31.8913C11.8277 33.4265 8.42928 39.3157 9.96372 45.0451L35.895 141.869C37.4295 147.599 43.3157 150.999 49.0423 149.464L111.256 132.786C116.983 131.25 120.381 125.361 118.847 119.632L92.9154 22.8073ZM125.759 117.779C128.317 127.328 122.653 137.143 113.108 139.702L50.8946 156.38C41.3502 158.938 31.5398 153.272 28.9824 143.723L3.05108 46.8982C0.493677 37.3492 6.15773 27.5339 15.7021 24.9753L77.9158 8.29699C87.4602 5.73833 97.2706 11.4052 99.828 20.9542L125.759 117.779Z" fill="#2EBFE0"/>
</svg>
