<svg width="125" height="125" viewBox="0 0 125 125" fill="none" xmlns="http://www.w3.org/2000/svg">
<path d="M113.649 62.5001C113.649 90.7508 90.7505 113.649 62.5 113.649C55.9216 113.66 49.4036 112.394 43.3079 109.921C43.1824 109.935 43.0562 109.943 42.9298 109.943H20.5426C19.8221 109.943 19.1086 109.802 18.4429 109.526C17.7772 109.251 17.1723 108.846 16.6629 108.337C16.1534 107.828 15.7494 107.223 15.4738 106.557C15.1983 105.891 15.0567 105.178 15.0571 104.457V81.6403C12.5988 75.5591 11.3402 69.0598 11.3507 62.5005C11.3507 34.25 34.249 11.3516 62.4997 11.3516C90.7504 11.3516 113.649 34.2496 113.649 62.5001Z" fill="#29B8D8"/>
<path d="M38.7781 72.8784C42.8721 72.8784 46.191 69.5596 46.191 65.4656C46.191 61.3716 42.8721 58.0527 38.7781 58.0527C34.6841 58.0527 31.3652 61.3716 31.3652 65.4656C31.3652 69.5596 34.6841 72.8784 38.7781 72.8784Z" fill="white"/>
<path d="M60.2752 72.8784C64.3692 72.8784 67.6881 69.5596 67.6881 65.4656C67.6881 61.3716 64.3692 58.0527 60.2752 58.0527C56.1812 58.0527 52.8623 61.3716 52.8623 65.4656C52.8623 69.5596 56.1812 72.8784 60.2752 72.8784Z" fill="white"/>
<path d="M82.5154 72.8784C86.6094 72.8784 89.9283 69.5596 89.9283 65.4656C89.9283 61.3716 86.6094 58.0527 82.5154 58.0527C78.4214 58.0527 75.1025 61.3716 75.1025 65.4656C75.1025 69.5596 78.4214 72.8784 82.5154 72.8784Z" fill="white"/>
</svg>
