<svg width="26" height="22" viewBox="0 0 26 22" fill="none" xmlns="http://www.w3.org/2000/svg">
<path d="M7.54971 16.0682C6.09235 16.0682 4.88098 15.5855 3.9156 14.6201C2.9595 13.6547 2.48145 12.448 2.48145 10.9999C2.48145 9.55183 2.9595 8.34974 3.9156 7.39364C4.8717 6.41897 6.08307 5.93164 7.54971 5.93164C8.42227 5.93164 9.22985 6.13586 9.97245 6.54429C10.7151 6.94344 11.2998 7.49111 11.7268 8.1873L9.80536 9.3012C9.59186 8.92062 9.28554 8.62822 8.88639 8.424C8.49653 8.2105 8.05096 8.10375 7.54971 8.10375C6.67715 8.10375 5.9856 8.36831 5.47506 8.89741C4.96452 9.41723 4.70925 10.1181 4.70925 10.9999C4.70925 11.8817 4.96452 12.5826 5.47506 13.1024C5.9856 13.6315 6.67715 13.8961 7.54971 13.8961C8.04168 13.8961 8.48724 13.7893 8.88639 13.5758C9.29482 13.3623 9.60115 13.0699 9.80536 12.6986L11.7268 13.8125C11.3091 14.5087 10.729 15.061 9.98637 15.4694C9.24377 15.8686 8.43155 16.0682 7.54971 16.0682Z" fill="black"/>
<path d="M20.2898 6.12657H22.5176V15.8732H20.2898V10.2062L17.7696 14.3416H17.5189L14.9987 10.2062V15.8732H12.7709V6.12657H14.9987L17.6442 10.4569L20.2898 6.12657Z" fill="black"/>
</svg>
