<svg width="25" height="25" viewBox="0 0 25 25" fill="none" xmlns="http://www.w3.org/2000/svg">
<path d="M16.6663 2.08301C17.4949 2.08391 18.2895 2.41378 18.8754 2.99964C19.461 3.5854 19.7901 4.37948 19.7911 5.20775V21.8749C19.7908 22.1509 19.6813 22.4154 19.4862 22.6107L19.4097 22.6806C19.2244 22.8324 18.9911 22.9163 18.7495 22.9165L18.6134 22.9072C18.5233 22.8953 18.4352 22.8719 18.3513 22.8372L18.2292 22.7766L12.5 19.4729L6.77085 22.7766L6.64776 22.8372C6.52191 22.8892 6.38662 22.9166 6.24959 22.9165L6.11345 22.9072C6.02346 22.8953 5.93529 22.872 5.85142 22.8372L5.72926 22.7766C5.61053 22.7081 5.50639 22.6171 5.42341 22.509L5.34788 22.3953C5.25649 22.237 5.20815 22.0576 5.20801 21.8749V5.20775C5.20892 4.43112 5.49854 3.6845 6.0174 3.11153L6.12464 2.99964C6.71043 2.41384 7.50432 2.08398 8.33275 2.08301H16.6663ZM8.16677 3.52369C7.77922 3.56264 7.41515 3.73448 7.13731 4.01231C6.81968 4.32994 6.64079 4.76042 6.6403 5.20962V21.1979L12.5 17.8196L18.3588 21.1979V5.20962L18.3504 5.04177C18.3115 4.65438 18.1403 4.2901 17.8627 4.01231C17.5848 3.73442 17.22 3.56259 16.8323 3.52369L16.6645 3.5153H8.33462L8.16677 3.52369Z" fill="black"/>
</svg>
