<svg width="25" height="25" viewBox="0 0 25 25" fill="none" xmlns="http://www.w3.org/2000/svg">
<path d="M22.4027 6.7378C22.4027 5.90937 21.7352 5.2378 20.9117 5.2378H11.9661C11.1427 5.2378 10.4752 5.90937 10.4752 6.7378V20.7378C10.4752 21.5662 11.1427 22.2378 11.9661 22.2378H20.9117C21.7352 22.2378 22.4027 21.5662 22.4027 20.7378V6.7378ZM23.3966 20.7378C23.3966 22.1185 22.2841 23.2378 20.9117 23.2378H11.9661C10.5938 23.2378 9.48123 22.1185 9.48123 20.7378V6.7378C9.48123 5.35709 10.5938 4.2378 11.9661 4.2378H20.9117C22.2841 4.2378 23.3966 5.35709 23.3966 6.7378V20.7378Z" fill="white"/>
<path d="M9.97821 6.7378C9.97821 5.63323 10.8682 4.7378 11.9661 4.7378H20.9117C22.0096 4.7378 22.8996 5.63323 22.8996 6.7378V20.7378C22.8996 21.8424 22.0096 22.7378 20.9117 22.7378H11.9661C10.8682 22.7378 9.97821 21.8424 9.97821 20.7378V6.7378Z" fill="black"/>
<path d="M1.44033 6.66111C1.15618 5.59417 1.78551 4.4975 2.846 4.21162L11.4868 1.88225C12.5473 1.59636 13.6373 2.22953 13.9215 3.29646L17.5231 16.8194C17.8072 17.8864 17.1779 18.983 16.1174 19.2689L7.47659 21.5983C6.4161 21.8842 5.32606 21.251 5.0419 20.1841L1.44033 6.66111Z" fill="black"/>
<path d="M13.4414 3.42587C13.2283 2.62567 12.4108 2.1508 11.6154 2.36521L2.97463 4.69458C2.17926 4.90899 1.70726 5.7315 1.92038 6.5317L5.52195 20.0547C5.73506 20.8549 6.5526 21.3297 7.34796 21.1153L15.9888 18.7859C16.7841 18.5715 17.2561 17.749 17.043 16.9488L13.4414 3.42587ZM18.0031 16.69C18.3583 18.0237 17.5716 19.3945 16.246 19.7519L7.60522 22.0812C6.27961 22.4386 4.91705 21.6471 4.56186 20.3135L0.960287 6.79052C0.605092 5.45685 1.39177 4.08601 2.71737 3.72865L11.3582 1.39928C12.6838 1.04193 14.0463 1.83338 14.4015 3.16705L18.0031 16.69Z" fill="white"/>
</svg>
