<svg width="25" height="25" viewBox="0 0 25 25" fill="none" xmlns="http://www.w3.org/2000/svg">
<path d="M22.9163 12.4997C22.9163 18.2526 18.2526 22.9163 12.4997 22.9163C9.38848 22.9163 2.08301 22.9163 2.08301 22.9163C2.08301 22.9163 2.08301 15.1414 2.08301 12.4997C2.08301 6.74671 6.74671 2.08301 12.4997 2.08301C18.2526 2.08301 22.9163 6.74671 22.9163 12.4997Z" fill="black"/>
<path d="M21.9231 12.5C21.9231 7.30518 17.7104 3.08326 12.5009 3.08301C7.29122 3.08301 3.07776 7.30502 3.07776 12.5V21.916H12.5009C17.7103 21.9158 21.923 17.6947 21.9231 12.5ZM23.9111 12.5C23.9109 18.8107 18.7968 23.9158 12.5009 23.916H2.0838C1.53485 23.916 1.08984 23.4683 1.08984 22.916V12.5C1.08984 6.18904 6.2047 1.08301 12.5009 1.08301C18.7969 1.08326 23.9111 6.18919 23.9111 12.5Z" fill="black"/>
</svg>
