<svg width="25" height="25" viewBox="0 0 25 25" fill="none" xmlns="http://www.w3.org/2000/svg">
<path d="M13.9683 12.4997L20.5308 5.94762C20.7269 5.75147 20.8371 5.48544 20.8371 5.20804C20.8371 4.93064 20.7269 4.6646 20.5308 4.46845C20.3346 4.27231 20.0686 4.16211 19.7912 4.16211C19.5138 4.16211 19.2478 4.27231 19.0516 4.46845L12.4995 11.031L5.94745 4.46845C5.7513 4.27231 5.48526 4.16211 5.20786 4.16211C4.93047 4.16211 4.66443 4.27231 4.46828 4.46845C4.27213 4.6646 4.16193 4.93064 4.16193 5.20804C4.16193 5.48544 4.27213 5.75147 4.46828 5.94762L11.0308 12.4997L4.46828 19.0518C4.37065 19.1486 4.29315 19.2638 4.24027 19.3908C4.18738 19.5177 4.16016 19.6539 4.16016 19.7914C4.16016 19.9289 4.18738 20.065 4.24027 20.192C4.29315 20.3189 4.37065 20.4341 4.46828 20.531C4.56512 20.6286 4.68033 20.7061 4.80726 20.759C4.9342 20.8119 5.07035 20.8391 5.20786 20.8391C5.34538 20.8391 5.48153 20.8119 5.60846 20.759C5.7354 20.7061 5.85061 20.6286 5.94745 20.531L12.4995 13.9685L19.0516 20.531C19.1485 20.6286 19.2637 20.7061 19.3906 20.759C19.5175 20.8119 19.6537 20.8391 19.7912 20.8391C19.9287 20.8391 20.0649 20.8119 20.1918 20.759C20.3187 20.7061 20.4339 20.6286 20.5308 20.531C20.6284 20.4341 20.7059 20.3189 20.7588 20.192C20.8117 20.065 20.8389 19.9289 20.8389 19.7914C20.8389 19.6539 20.8117 19.5177 20.7588 19.3908C20.7059 19.2638 20.6284 19.1486 20.5308 19.0518L13.9683 12.4997Z" fill="black"/>
</svg>
