<svg width="13" height="13" viewBox="0 0 13 13" fill="none" xmlns="http://www.w3.org/2000/svg">
<g clip-path="url(#clip0_180_2896)">
<path d="M6.5 0.676758C6.72426 0.676758 6.90607 0.858792 6.90625 1.08301C6.90625 1.30737 6.72437 1.48926 6.5 1.48926H3.25C2.27775 1.48926 1.48926 2.27775 1.48926 3.25V9.75C1.48926 10.7223 2.27775 11.5107 3.25 11.5107H9.75C10.7223 11.5107 11.5107 10.7223 11.5107 9.75V6.5C11.5107 6.27563 11.6926 6.09375 11.917 6.09375C12.1412 6.09393 12.3232 6.27574 12.3232 6.5V9.75C12.3232 11.171 11.171 12.3232 9.75 12.3232H3.25C1.82902 12.3232 0.676758 11.171 0.676758 9.75V3.25C0.676758 1.82902 1.82902 0.676758 3.25 0.676758H6.5ZM7.50488 2.83887C7.75864 3.3165 8.13223 3.91934 8.60645 4.39355C9.08065 4.86776 9.6835 5.24136 10.1611 5.49512L7.07422 8.58203C6.88271 8.77354 6.6343 8.89816 6.36621 8.93652L4.50684 9.20215C4.09364 9.26118 3.73882 8.90636 3.79785 8.49316L4.06348 6.63379C4.10184 6.3657 4.22646 6.11729 4.41797 5.92578L7.50488 2.83887ZM8.89355 1.4502C9.38251 0.961244 10.175 0.96135 10.6641 1.4502L11.5498 2.33594C12.0386 2.82496 12.0388 3.61749 11.5498 4.10645L10.7646 4.8916C10.7031 4.86114 10.6384 4.82829 10.5713 4.79297C10.1188 4.55473 9.58143 4.2201 9.18066 3.81934C8.77993 3.4186 8.44624 2.88121 8.20801 2.42871C8.17263 2.36151 8.13891 2.29696 8.1084 2.23535L8.89355 1.4502Z" fill="black"/>
</g>
<defs>
<clipPath id="clip0_180_2896">
<rect width="13" height="13" fill="white"/>
</clipPath>
</defs>
</svg>
