<svg width="14" height="14" viewBox="0 0 14 14" fill="none" xmlns="http://www.w3.org/2000/svg">
<path d="M5.83333 6.99967C5.83333 6.35801 6.35833 5.83301 7 5.83301C7.64167 5.83301 8.16667 6.35801 8.16667 6.99967C8.16667 7.64134 7.64167 8.16634 7 8.16634C6.35833 8.16634 5.83333 7.64134 5.83333 6.99967ZM4.08333 6.99967C4.08333 7.64134 3.55833 8.16634 2.91667 8.16634C2.275 8.16634 1.75 7.64134 1.75 6.99967C1.75 6.35801 2.275 5.83301 2.91667 5.83301C3.55833 5.83301 4.08333 6.35801 4.08333 6.99967ZM9.91667 6.99967C9.91667 6.35801 10.4417 5.83301 11.0833 5.83301C11.725 5.83301 12.25 6.35801 12.25 6.99967C12.25 7.64134 11.725 8.16634 11.0833 8.16634C10.4417 8.16634 9.91667 7.64134 9.91667 6.99967Z" fill="black"/>
</svg>
