<svg width="25" height="25" viewBox="0 0 25 25" fill="none" xmlns="http://www.w3.org/2000/svg">
<path d="M3.125 5.20833H10.4167M10.4167 5.20833C10.4167 6.35893 11.3494 7.29167 12.5 7.29167C13.6506 7.29167 14.5833 6.35893 14.5833 5.20833M10.4167 5.20833C10.4167 4.05774 11.3494 3.125 12.5 3.125C13.6506 3.125 14.5833 4.05774 14.5833 5.20833M3.125 12.5H12.5M19.7917 12.5H21.875M19.7917 12.5C19.7917 13.6506 18.8589 14.5833 17.7083 14.5833C16.5577 14.5833 15.625 13.6506 15.625 12.5C15.625 11.3494 16.5577 10.4167 17.7083 10.4167C18.8589 10.4167 19.7917 11.3494 19.7917 12.5ZM14.5833 5.20833H21.875M12.5 19.7917H21.875M3.125 19.7917H5.20833M5.20833 19.7917C5.20833 20.9423 6.14107 21.875 7.29167 21.875C8.44226 21.875 9.375 20.9423 9.375 19.7917C9.375 18.6411 8.44226 17.7083 7.29167 17.7083C6.14107 17.7083 5.20833 18.6411 5.20833 19.7917Z" stroke="black" stroke-width="1.5" stroke-linecap="round"/>
</svg>
