<svg width="41" height="41" viewBox="0 0 41 41" fill="none" xmlns="http://www.w3.org/2000/svg">
<path d="M21.3472 20.6325L28.2293 26.608C28.7626 27.0711 29.5709 27.0141 30.034 26.4808C30.4969 25.9474 30.4394 25.1398 29.9061 24.6768L17.2886 13.7214L17.2144 13.6505C16.8672 13.2812 16.8497 12.7016 17.1891 12.3107C17.5512 11.8936 18.1828 11.8491 18.5998 12.2112L22.0412 15.1993L22.1438 15.2793C22.6736 15.6528 23.4103 15.5719 23.8446 15.0721C24.3076 14.5389 24.2511 13.7312 23.7181 13.268L19.703 9.78185C15.3688 6.01863 8.80393 6.48156 5.04067 10.8157C1.27743 15.1499 1.74031 21.7147 6.0745 25.478L10.0896 28.9642C10.6229 29.4269 11.4299 29.37 11.8929 28.837C12.3559 28.3038 12.2994 27.4961 11.7664 27.0329C11.3494 26.6709 11.3049 26.0393 11.667 25.6222C12.0291 25.2054 12.6607 25.1607 13.0777 25.5228L14.2243 26.5184C14.7576 26.9814 15.5653 26.9251 16.0284 26.3918C16.4915 25.8585 16.4345 25.0502 15.9012 24.5871L15.8269 24.5162C15.48 24.1469 15.4623 23.5673 15.8017 23.1764C16.1411 22.7859 16.7169 22.7226 17.1311 23.0141L17.2124 23.077L18.3598 24.0732C18.8931 24.5361 19.7001 24.4793 20.1631 23.946C20.6261 23.4128 20.5691 22.6058 20.036 22.1427L19.9624 22.071C19.6153 21.7018 19.5972 21.1229 19.9365 20.732C20.276 20.341 20.8522 20.277 21.2666 20.569L21.3472 20.6325ZM34.6352 22.4237C34.2732 22.8406 33.6415 22.885 33.2245 22.5232C32.8075 22.1611 32.763 21.5295 33.125 21.1125L35.8416 17.9837C36.2037 17.5667 36.8353 17.5222 37.2524 17.8843C37.6691 18.2464 37.7138 18.8781 37.3518 19.295L34.6352 22.4237ZM23.9353 34.747C23.5733 35.1638 22.9416 35.2082 22.5246 34.8465C22.1076 34.4844 22.0631 33.8528 22.4251 33.4358L25.1417 30.307C25.5038 29.89 26.1354 29.8455 26.5524 30.2076C26.9691 30.5697 27.0139 31.2014 26.6519 31.6183L23.9353 34.747ZM39.8491 25.1996C39.8879 25.7505 39.4722 26.2292 38.9213 26.2681L34.7884 26.5595C34.2375 26.5983 33.7595 26.1833 33.7206 25.6324C33.6818 25.0815 34.0968 24.6035 34.6477 24.5647L38.7813 24.2725C39.332 24.2338 39.8099 24.649 39.8491 25.1996ZM31.0596 35.3225C31.0985 35.8734 30.6835 36.3514 30.1325 36.3903C29.5817 36.4291 29.1036 36.0141 29.0648 35.4632L28.7734 31.3302C28.7345 30.7794 29.1496 30.3014 29.7005 30.2625C30.2514 30.2237 30.7294 30.6387 30.7682 31.1896L31.0596 35.3225ZM34.1545 28.438L37.2833 31.1546C37.7003 31.5166 37.7448 32.1482 37.3827 32.5653C37.0206 32.9822 36.389 33.0268 35.972 32.6647L32.8433 29.9481C32.4263 29.5861 32.3818 28.9545 32.7438 28.5374C33.1059 28.1204 33.7375 28.0759 34.1545 28.438ZM22.3167 24.123C22.1849 24.5287 21.9706 24.9149 21.6733 25.2573C20.8036 26.2589 19.4603 26.6044 18.2662 26.2514C18.1533 26.7718 17.9124 27.2726 17.5386 27.7031C16.6691 28.7044 15.326 29.0491 14.1322 28.6964C14.0192 29.217 13.777 29.7176 13.4031 30.1483C12.2159 31.5153 10.1457 31.6612 8.77837 30.4744L4.76326 26.9882C-0.404979 22.5007 -0.956933 14.6727 3.53049 9.50444C8.01793 4.33627 15.846 3.78427 21.0142 8.27167L25.0293 11.7579C26.3964 12.9452 26.5419 15.0161 25.3548 16.3834C25.0574 16.7258 24.7045 16.9915 24.3213 17.1789L31.2174 23.1666C32.5847 24.3538 32.7312 26.4246 31.5442 27.792C30.3569 29.1594 28.2854 29.3054 26.918 28.1182L22.3167 24.123Z" fill="black"/>
</svg>
