<svg width="24" height="24" viewBox="0 0 24 24" fill="none" xmlns="http://www.w3.org/2000/svg">
<g clip-path="url(#clip0_494_22668)">
<path d="M9.56633 1.31062C10.6282 0.705025 11.9802 1.07489 12.5859 2.13679L16.5351 9.06159L16.5263 6.72956C16.4981 5.94726 16.9059 5.21122 17.5878 4.82234C18.8499 4.1028 20.4914 4.83757 20.7333 6.2862L20.7529 6.4278V6.43073C20.8645 7.57999 21.074 8.83858 21.2587 10.2159C21.4402 11.5688 21.5913 12.9993 21.5634 14.3868C21.5075 17.1674 20.7203 19.9256 17.8671 21.5528L17.579 21.7169C13.8148 23.8636 9.02265 22.5523 6.8759 18.7882L2.27141 10.7139C1.66606 9.65211 2.03586 8.30098 3.09758 7.69538C3.31461 7.57161 3.54389 7.48911 3.77629 7.44441L3.65422 7.23054C3.0486 6.16863 3.41848 4.81663 4.48039 4.21101C4.72498 4.07152 4.98528 3.9858 5.24797 3.94636C5.01324 3.00773 5.41704 1.9912 6.29875 1.48835C7.18033 0.985685 8.25985 1.15631 8.94816 1.83601C9.11579 1.63021 9.32193 1.45 9.56633 1.31062ZM11.2821 2.87995C11.0869 2.53782 10.6517 2.41831 10.3095 2.61335C9.96781 2.80822 9.84816 3.24302 10.0419 3.58503L13.9579 10.4503C14.163 10.8101 14.0374 11.2685 13.6777 11.4737C13.3179 11.6787 12.8594 11.5532 12.6542 11.1934L8.74016 4.33015L8.73918 4.3282L8.01457 3.05769C7.81936 2.7154 7.38323 2.59588 7.04094 2.79109C6.69903 2.98637 6.58035 3.42162 6.77531 3.76374L8.95012 7.5782C8.95279 7.58288 8.9544 7.58813 8.95695 7.59284L11.415 11.9024C11.6199 12.2622 11.4944 12.7197 11.1347 12.9249C10.775 13.13 10.3176 13.005 10.1122 12.6456L6.19719 5.78034C6.00202 5.43813 5.56581 5.3187 5.22355 5.51374C4.88128 5.70894 4.76178 6.14509 4.95695 6.48737L8.87199 13.3516C9.0772 13.7114 8.95153 14.1699 8.59172 14.3751C8.23194 14.5801 7.77443 14.4545 7.56926 14.0948L4.8134 9.26472C4.61819 8.92244 4.18303 8.80293 3.84074 8.99812C3.49845 9.19333 3.37893 9.62946 3.57414 9.97175L8.17863 18.045C9.91498 21.0896 13.7913 22.1505 16.8359 20.4141L17.1239 20.2501C19.3189 18.9983 20.0135 16.889 20.0644 14.3565C20.0899 13.0874 19.9504 11.7492 19.7714 10.4151C19.5957 9.10552 19.3746 7.75798 19.2597 6.57527C19.2158 6.16517 18.7331 5.8961 18.331 6.12507C18.1562 6.22476 18.0432 6.40373 18.0263 6.60066L18.0253 6.68562L18.0263 6.70515V6.7237L18.0468 11.9132C18.0468 11.9196 18.046 11.9263 18.0458 11.9327C18.0454 11.951 18.0456 11.9692 18.0439 11.9874C18.0412 12.0156 18.0359 12.0431 18.0302 12.0704C18.0221 12.1086 18.0099 12.1452 17.996 12.1817C17.9916 12.1934 17.9883 12.2055 17.9833 12.2169C17.9691 12.2492 17.9513 12.2794 17.9325 12.3096C17.9259 12.3204 17.9202 12.3315 17.913 12.3419C17.8943 12.3689 17.8729 12.3935 17.8505 12.418C17.8389 12.4309 17.8279 12.4441 17.8154 12.4561C17.7868 12.4833 17.7569 12.5094 17.7236 12.5323C17.7191 12.5354 17.7144 12.5381 17.7099 12.5411C17.6968 12.5496 17.6845 12.5596 17.6708 12.5675C17.6464 12.5814 17.6209 12.5927 17.5956 12.6036C17.5912 12.6055 17.5864 12.6066 17.582 12.6085C17.5525 12.6205 17.5223 12.6287 17.4921 12.6368C17.4307 12.6534 17.3673 12.6658 17.3007 12.6661C17.2366 12.6663 17.1746 12.6556 17.1152 12.6407C17.1019 12.6373 17.0891 12.633 17.0761 12.629C17.0414 12.6182 17.0078 12.6063 16.9755 12.5909C16.9655 12.5861 16.956 12.5805 16.9462 12.5753C16.9138 12.558 16.8828 12.5393 16.8534 12.5176C16.8443 12.5109 16.8359 12.5033 16.8271 12.4962C16.7969 12.4716 16.7682 12.4459 16.7421 12.4171C16.7312 12.4049 16.7211 12.392 16.7109 12.379C16.6913 12.3542 16.6725 12.329 16.6562 12.3018C16.6533 12.297 16.6502 12.2921 16.6474 12.2872L11.2821 2.87995Z" fill="black"/>
</g>
<defs>
<clipPath id="clip0_494_22668">
<rect width="24" height="24" fill="white"/>
</clipPath>
</defs>
</svg>
