<svg width="24" height="24" viewBox="0 0 24 24" fill="none" xmlns="http://www.w3.org/2000/svg">
<path d="M5.93034 1.87783C5.33162 2.26604 5.16096 3.06611 5.54916 3.66483L11.1724 12.3376C11.2695 12.4872 11.2268 12.6873 11.0772 12.7843C10.9275 12.8814 10.7275 12.8387 10.6304 12.689L5.88576 5.3714C5.49755 4.77267 4.69748 4.60201 4.09875 4.99022C3.50003 5.37843 3.32937 6.1785 3.71757 6.77722L8.46222 14.0948C8.55927 14.2445 8.51661 14.4445 8.36692 14.5416C8.21724 14.6386 8.01723 14.596 7.92017 14.4463L4.58135 9.29686C4.19314 8.69813 3.39307 8.52747 2.79435 8.91568C2.19562 9.30389 2.02496 10.104 2.41317 10.7027L7.99352 19.3092C10.2494 22.7884 14.8987 23.7802 18.3779 21.5243L18.6851 21.3251C21.238 19.6698 21.8904 17.0838 21.7843 14.2054C21.7312 12.7657 21.4882 11.2696 21.206 9.80467C21.1159 9.33679 21.0198 8.86308 20.9251 8.39615L20.9248 8.39473C20.7281 7.42482 20.5374 6.48357 20.4044 5.6265L20.4039 5.62308C20.2747 4.81848 19.3198 4.36018 18.5786 4.84075C18.2053 5.08279 18.0008 5.515 18.0504 5.95713L18.0513 5.96524L18.3988 11.6585L18.4004 11.6735C18.4125 11.7856 18.3657 11.8981 18.2734 11.9671L18.2719 11.9682C18.2234 12.0047 18.1645 12.0279 18.098 12.0319C17.9728 12.0396 17.8587 11.975 17.7984 11.8711L17.7904 11.8573L11.3062 1.85685C10.918 1.25812 10.1179 1.08746 9.51921 1.47567C8.92048 1.86387 8.74982 2.66394 9.13803 3.26267L13.8827 10.5803C13.9797 10.73 13.9371 10.93 13.7874 11.027C13.6377 11.1241 13.4377 11.0814 13.3406 10.9317L7.71734 2.25901C7.32914 1.66028 6.52907 1.48962 5.93034 1.87783Z" fill="black"/>
</svg>
