<svg width="25" height="25" viewBox="0 0 25 25" fill="none" xmlns="http://www.w3.org/2000/svg">
<path fill-rule="evenodd" clip-rule="evenodd" d="M0.842773 5.64397C0.842773 3.45187 2.75653 1.6748 5.11726 1.6748H19.8837C22.2444 1.6748 24.1582 3.45187 24.1582 5.64397V14.304C24.1582 16.4961 22.2444 18.2731 19.8837 18.2731H13.6685C13.1979 18.2731 12.7433 18.4317 12.3891 18.7195L7.05069 23.057C6.70645 23.3366 6.21786 23.4036 5.80132 23.228C5.38477 23.0525 5.11726 22.667 5.11726 22.2423V19.1752C5.11726 18.677 4.68232 18.2731 4.14579 18.2731C2.32158 18.2731 0.842773 16.8999 0.842773 15.206V5.64397ZM7.83739 8.89147C6.97894 8.89147 6.28303 9.53767 6.28303 10.3348C6.28303 11.1319 6.97894 11.7781 7.83739 11.7781C8.69584 11.7781 9.39175 11.1319 9.39175 10.3348C9.39175 9.53767 8.69584 8.89147 7.83739 8.89147ZM12.5005 8.89147C11.642 8.89147 10.9461 9.53767 10.9461 10.3348C10.9461 11.1319 11.642 11.7781 12.5005 11.7781C13.3589 11.7781 14.0548 11.1319 14.0548 10.3348C14.0548 9.53767 13.3589 8.89147 12.5005 8.89147ZM15.6092 10.3348C15.6092 9.53767 16.3051 8.89147 17.1635 8.89147C18.022 8.89147 18.7179 9.53767 18.7179 10.3348C18.7179 11.1319 18.022 11.7781 17.1635 11.7781C16.3051 11.7781 15.6092 11.1319 15.6092 10.3348Z" fill="white"/>
</svg>
