<svg width="25" height="25" viewBox="0 0 25 25" fill="none" xmlns="http://www.w3.org/2000/svg">
<path d="M18.7792 1.67383C21.5667 1.67383 24.0347 3.79961 24.0348 6.66987V14.0345C24.0348 16.9049 21.5667 19.0306 18.7792 19.0306H13.4935C13.4753 19.0306 13.4593 19.0342 13.4468 19.0385C13.4353 19.0425 13.429 19.0463 13.4278 19.0472L8.88763 22.7359C8.11917 23.3602 7.06669 23.4935 6.17396 23.1173C5.26918 22.736 4.60083 21.8515 4.60067 20.7859V18.9602C2.60802 18.6094 0.96582 16.9657 0.96582 14.8014V6.66987C0.965914 3.7997 3.43406 1.67395 6.22144 1.67383H18.7792ZM6.22144 3.29459C4.214 3.29471 2.58668 4.80582 2.58659 6.66987V14.8014C2.58659 16.2418 3.84403 17.4097 5.39523 17.4098C5.8515 17.4098 6.22144 17.7538 6.22144 18.1775V20.7859C6.2216 21.1469 6.44911 21.4747 6.80311 21.624C7.15734 21.7732 7.5732 21.7162 7.86595 21.4784L12.4054 17.7897C12.7065 17.545 13.0934 17.4099 13.4935 17.4098H18.7792C20.7868 17.4098 22.4141 15.8987 22.4141 14.0345V6.66987C22.414 4.80575 20.7868 3.29459 18.7792 3.29459H6.22144ZM8.53467 9.43182C9.26471 9.43182 9.85708 9.98138 9.85708 10.6593C9.85704 11.3371 9.26468 11.8867 8.53467 11.8867C7.80477 11.8866 7.21309 11.337 7.21305 10.6593C7.21305 9.98145 7.80475 9.43195 8.53467 9.43182ZM12.5003 9.43182C13.2304 9.43182 13.8219 9.98138 13.8219 10.6593C13.8219 11.3371 13.2303 11.8867 12.5003 11.8867C11.7704 11.8866 11.1787 11.3371 11.1787 10.6593C11.1787 9.98142 11.7704 9.4319 12.5003 9.43182ZM16.466 9.43182C17.196 9.43182 17.7876 9.98138 17.7876 10.6593C17.7876 11.3371 17.196 11.8867 16.466 11.8867C15.736 11.8867 15.1444 11.3371 15.1444 10.6593C15.1444 9.98139 15.736 9.43185 16.466 9.43182ZM8.53467 10.2659C8.49048 10.266 8.42726 10.2835 8.3669 10.3395C8.30437 10.3976 8.23632 10.51 8.23632 10.6593L8.2474 10.7637C8.26948 10.8612 8.31996 10.9354 8.3669 10.979C8.42724 11.035 8.4905 11.0525 8.53467 11.0526C8.57888 11.0526 8.64275 11.0352 8.70324 10.979C8.75014 10.9354 8.79985 10.8611 8.82195 10.7637L8.83382 10.6593L8.82195 10.5548C8.79988 10.4574 8.75014 10.3832 8.70324 10.3395C8.65775 10.2973 8.61047 10.2766 8.57107 10.2691L8.53467 10.2659ZM12.5003 10.2659C12.4561 10.266 12.3929 10.2835 12.3325 10.3395C12.27 10.3976 12.2012 10.51 12.2012 10.6593L12.213 10.7637C12.2351 10.8612 12.2856 10.9354 12.3325 10.979C12.3929 11.035 12.4562 11.0525 12.5003 11.0526C12.5445 11.0526 12.6084 11.0352 12.6689 10.979C12.7158 10.9354 12.7655 10.861 12.7876 10.7637L12.7995 10.6593L12.7876 10.5548C12.7655 10.4575 12.7158 10.3832 12.6689 10.3395C12.6234 10.2973 12.5761 10.2766 12.5367 10.2691L12.5003 10.2659ZM16.466 10.2659C16.4218 10.266 16.3586 10.2835 16.2982 10.3395C16.2357 10.3976 16.1668 10.51 16.1668 10.6593L16.1787 10.7637C16.2008 10.8612 16.2513 10.9354 16.2982 10.979C16.3586 11.035 16.4218 11.0526 16.466 11.0526C16.5102 11.0526 16.5741 11.0352 16.6345 10.979C16.6814 10.9354 16.7312 10.861 16.7533 10.7637L16.7651 10.6593L16.7533 10.5548C16.7312 10.4575 16.6814 10.3832 16.6345 10.3395C16.5891 10.2974 16.5417 10.2766 16.5024 10.2691L16.466 10.2659Z" fill="black"/>
</svg>
