<svg width="24" height="24" viewBox="0 0 24 24" fill="none" xmlns="http://www.w3.org/2000/svg">
<path d="M20.25 10.8887C20.2499 6.40254 16.5651 2.75 12 2.75C7.43491 2.75 3.75012 6.40254 3.75 10.8887C3.75 13.0926 5.03523 15.7036 6.80762 17.8018C7.68375 18.8389 8.65085 19.7155 9.58203 20.3271C10.5286 20.9489 11.3662 21.25 12 21.25C12.6338 21.25 13.4714 20.9489 14.418 20.3271C15.3491 19.7155 16.3162 18.8389 17.1924 17.8018C18.9648 15.7036 20.25 13.0926 20.25 10.8887ZM14.25 11C14.25 9.75736 13.2426 8.75 12 8.75C10.7574 8.75 9.75 9.75736 9.75 11C9.75 12.2426 10.7574 13.25 12 13.25C13.2426 13.25 14.25 12.2426 14.25 11ZM15.75 11C15.75 13.0711 14.0711 14.75 12 14.75C9.92893 14.75 8.25 13.0711 8.25 11C8.25 8.92893 9.92893 7.25 12 7.25C14.0711 7.25 15.75 8.92893 15.75 11ZM21.75 10.8887C21.75 13.5939 20.2227 16.5394 18.3389 18.7695C17.387 19.8963 16.3147 20.8765 15.2422 21.5811C14.1849 22.2756 13.0536 22.75 12 22.75C10.9464 22.75 9.81513 22.2756 8.75781 21.5811C7.68528 20.8765 6.61296 19.8963 5.66113 18.7695C3.77729 16.5394 2.25 13.5939 2.25 10.8887C2.25012 5.5566 6.62411 1.25 12 1.25C17.3759 1.25 21.7499 5.5566 21.75 10.8887Z" fill="#464646"/>
</svg>
