<svg width="12" height="12" viewBox="0 0 12 12" fill="none" xmlns="http://www.w3.org/2000/svg">
<path d="M10.5749 1.43013C10.3839 1.23541 10.1416 1.09874 9.87619 1.03591C9.61075 0.973093 9.33294 0.986688 9.0749 1.07513L1.9999 3.44013C1.71456 3.53353 1.46525 3.7132 1.28638 3.95434C1.10751 4.19549 1.00791 4.48621 1.00133 4.78638C0.99474 5.08655 1.0815 5.38136 1.24962 5.63011C1.41774 5.87887 1.65893 6.0693 1.9399 6.17513L4.5599 7.17513C4.61956 7.19794 4.67388 7.2328 4.71947 7.27753C4.76507 7.32226 4.80096 7.37591 4.8249 7.43512L5.8249 10.0601C5.92669 10.3371 6.11141 10.576 6.35389 10.7442C6.59636 10.9124 6.8848 11.0018 7.1799 11.0001H7.2149C7.51541 10.9947 7.80668 10.8953 8.04788 10.716C8.28907 10.5366 8.46811 10.2863 8.5599 10.0001L10.9249 2.91513C11.0109 2.6596 11.0237 2.3851 10.9619 2.12267C10.9 1.86024 10.766 1.62035 10.5749 1.43013V1.43013ZM9.9999 2.60013L7.6099 9.69012C7.58215 9.77986 7.52641 9.85836 7.45084 9.91414C7.37527 9.96992 7.28383 10 7.1899 10.0001C7.09653 10.0017 7.0049 9.97473 6.9272 9.92293C6.8495 9.87113 6.7894 9.7969 6.7549 9.71012L5.7549 7.08513C5.6824 6.89439 5.5706 6.72103 5.42674 6.57632C5.28289 6.4316 5.1102 6.31876 4.9199 6.24513L2.2949 5.24513C2.20635 5.21268 2.13023 5.15323 2.07729 5.07517C2.02436 4.99711 1.99729 4.9044 1.9999 4.81013C1.99998 4.7162 2.03011 4.62476 2.08589 4.54919C2.14167 4.47362 2.22017 4.41788 2.3099 4.39013L9.3999 2.02513C9.4813 1.99195 9.57057 1.98306 9.65692 1.99954C9.74326 2.01602 9.82298 2.05715 9.88645 2.11797C9.94991 2.17879 9.9944 2.25669 10.0145 2.34226C10.0347 2.42782 10.0296 2.51739 9.9999 2.60013V2.60013Z" fill="white"/>
</svg>
