<svg width="25" height="25" viewBox="0 0 25 25" fill="none" xmlns="http://www.w3.org/2000/svg">
<path d="M12.5 10.4167C14.5135 10.4167 16.1458 8.78437 16.1458 6.77083C16.1458 4.7573 14.5135 3.125 12.5 3.125C10.4865 3.125 8.85417 4.7573 8.85417 6.77083C8.85417 8.78437 10.4865 10.4167 12.5 10.4167Z" fill="black"/>
<path d="M3.125 21.25V21.875H21.875V21.25C21.875 18.9165 21.875 17.7497 21.4209 16.8584C21.0214 16.0744 20.384 15.4369 19.5999 15.0374C18.7086 14.5833 17.5419 14.5833 15.2083 14.5833H9.79167C7.45812 14.5833 6.29135 14.5833 5.40005 15.0374C4.61603 15.4369 3.97861 16.0744 3.57914 16.8584C3.125 17.7497 3.125 18.9165 3.125 21.25Z" fill="black"/>
<path d="M12.5 10.4167C14.5135 10.4167 16.1458 8.78437 16.1458 6.77083C16.1458 4.7573 14.5135 3.125 12.5 3.125C10.4865 3.125 8.85417 4.7573 8.85417 6.77083C8.85417 8.78437 10.4865 10.4167 12.5 10.4167Z" stroke="black" stroke-width="2" stroke-linecap="round" stroke-linejoin="round"/>
<path d="M3.125 21.25V21.875H21.875V21.25C21.875 18.9165 21.875 17.7497 21.4209 16.8584C21.0214 16.0744 20.384 15.4369 19.5999 15.0374C18.7086 14.5833 17.5419 14.5833 15.2083 14.5833H9.79167C7.45812 14.5833 6.29135 14.5833 5.40005 15.0374C4.61603 15.4369 3.97861 16.0744 3.57914 16.8584C3.125 17.7497 3.125 18.9165 3.125 21.25Z" stroke="black" stroke-width="2" stroke-linecap="round" stroke-linejoin="round"/>
</svg>
