<svg width="25" height="25" viewBox="0 0 25 25" fill="none" xmlns="http://www.w3.org/2000/svg">
<path d="M15.208 13.583C16.3583 13.583 17.2814 13.5827 18.0264 13.6436C18.7829 13.7054 19.4436 13.8357 20.0537 14.1465C21.0258 14.6418 21.8162 15.4322 22.3115 16.4043C22.6223 17.0143 22.7526 17.6751 22.8145 18.4316C22.8753 19.1766 22.875 20.0997 22.875 21.25V21.875C22.875 22.4273 22.4273 22.875 21.875 22.875H3.125C2.57272 22.875 2.125 22.4273 2.125 21.875V21.25C2.125 20.0997 2.12468 19.1766 2.18555 18.4316C2.24738 17.6751 2.37765 17.0143 2.68848 16.4043C3.18382 15.4322 3.97417 14.6418 4.94629 14.1465C5.55636 13.8357 6.21706 13.7054 6.97363 13.6436C7.71859 13.5827 8.64174 13.583 9.79199 13.583H15.208ZM9.79199 15.583C8.60889 15.583 7.78131 15.5841 7.13672 15.6367C6.50396 15.6884 6.13565 15.7855 5.85449 15.9287C5.25864 16.2323 4.77333 16.7166 4.46973 17.3125C4.32654 17.5936 4.23041 17.962 4.17871 18.5947C4.13179 19.169 4.12765 19.8883 4.12695 20.875H20.873C20.8724 19.8883 20.8682 19.169 20.8213 18.5947C20.7696 17.962 20.6735 17.5936 20.5303 17.3125C20.2267 16.7166 19.7414 16.2323 19.1455 15.9287C18.8644 15.7855 18.496 15.6884 17.8633 15.6367C17.2187 15.5841 16.3911 15.583 15.208 15.583H9.79199ZM15.1455 6.77051C15.1453 5.3094 13.9611 4.125 12.5 4.125C11.0389 4.125 9.85467 5.3094 9.85449 6.77051C9.85449 8.23176 11.0387 9.41699 12.5 9.41699C13.9613 9.41699 15.1455 8.23176 15.1455 6.77051ZM17.1455 6.77051C17.1455 9.33633 15.0658 11.417 12.5 11.417C9.93417 11.417 7.85449 9.33633 7.85449 6.77051C7.85467 4.20484 9.93428 2.125 12.5 2.125C15.0657 2.125 17.1453 4.20484 17.1455 6.77051Z" fill="black"/>
</svg>
