<svg width="21" height="17" viewBox="0 0 21 17" fill="none" xmlns="http://www.w3.org/2000/svg">
<path d="M8.89481 10.9458C8.89481 10.2987 8.71922 9.6977 8.36798 9.14298C8.01672 8.56987 7.57269 8.12599 7.03661 7.81161C7.16606 6.9979 7.34152 6.2851 7.56344 5.67481C7.80373 5.06487 8.03455 4.54718 8.25636 4.12199C8.51518 3.64133 8.79281 3.20656 9.08858 2.8183L5.95437 1.73606C4.91881 2.71615 4.11405 3.75156 3.54076 4.84259C2.98595 5.91522 2.57902 6.90543 2.32011 7.81161C2.0058 8.88407 1.83026 9.92883 1.79328 10.9458L1.79774 11.1316C1.81794 11.5624 1.90918 11.9719 2.07098 12.3602C2.25587 12.7855 2.50498 13.165 2.81926 13.4978C3.15212 13.8122 3.53155 14.0621 3.95687 14.247C4.34515 14.4088 4.7548 14.5 5.18555 14.5203L5.37217 14.5247C5.7928 14.5247 6.19233 14.4538 6.5705 14.3122L6.73122 14.247C7.15646 14.0621 7.52593 13.8121 7.84025 13.4978C8.17314 13.165 8.43218 12.7856 8.61711 12.3602C8.77891 11.9719 8.87015 11.5624 8.89035 11.1316L8.89481 10.9458ZM9.97795 10.9458V10.6681C9.97798 10.3844 10.0218 9.90732 10.0949 9.28585L10.0958 9.27425L10.0976 9.26264C10.2009 8.54012 10.4133 7.7416 10.7218 6.87314L10.8468 6.52846C11.1515 5.72239 11.5503 4.88918 12.0389 4.03002L12.0415 4.02555C12.6469 2.9763 13.4459 1.99176 14.4266 1.06993L14.8302 0.69043L19.6512 2.36915L18.8877 3.37192C18.6241 3.71795 18.3719 4.11165 18.1332 4.55507C17.9367 4.93301 17.7321 5.40809 17.5215 5.98734C17.3736 6.39399 17.2443 6.86246 17.1375 7.3955C17.5688 7.74069 17.9366 8.16212 18.2394 8.65365L18.3948 8.91886C18.7346 9.54576 18.9082 10.2256 18.9082 10.9458C18.9082 11.5611 18.7931 12.1525 18.56 12.7121L18.5573 12.7183L18.5546 12.7255C18.3233 13.2575 17.9985 13.7317 17.5858 14.1443C17.1868 14.5433 16.7205 14.8568 16.1946 15.0855C15.65 15.3223 15.0719 15.4391 14.4703 15.4391C13.8551 15.4391 13.2636 15.324 12.7041 15.0908L12.6916 15.0855C12.1704 14.8589 11.7014 14.5511 11.2906 14.1631L11.2718 14.1443L11.254 14.1256C10.8659 13.7147 10.5573 13.2466 10.3307 12.7255L10.328 12.7183L10.3253 12.7121C10.0922 12.1526 9.97795 11.5611 9.97795 10.9458ZM9.80918 10.9458C9.80918 11.561 9.69489 12.1526 9.46183 12.7121L9.45915 12.7183L9.45558 12.7255C9.22427 13.2573 8.90016 13.7317 8.48763 14.1443C8.08864 14.5433 7.62148 14.8568 7.09554 15.0855C6.55106 15.3222 5.97356 15.439 5.37217 15.4391C4.75686 15.4391 4.16462 15.324 3.60505 15.0908L3.59255 15.0855C3.07134 14.8589 2.60243 14.5512 2.19153 14.1631L2.17277 14.1443L2.15492 14.1256C1.76696 13.7148 1.45909 13.2465 1.23251 12.7255L1.22894 12.7183L1.22626 12.7121C0.993192 12.1526 0.878906 11.561 0.878906 10.9458V10.9289L0.879799 10.9128C0.9198 9.81276 1.10957 8.69197 1.44324 7.55355C1.72278 6.57724 2.15501 5.53278 2.72907 4.42291L2.73175 4.41755C3.3585 3.22478 4.22838 2.11029 5.32574 1.07171L5.72846 0.69043L10.5825 2.36648L9.81633 3.37192C9.55266 3.71798 9.30059 4.11159 9.06179 4.55507C8.86058 4.94194 8.6449 5.42549 8.41441 6.01056C8.27001 6.41188 8.14326 6.8724 8.03849 7.3955C8.46981 7.74069 8.83749 8.16211 9.14037 8.65365L9.29574 8.91886C9.63564 9.54579 9.80918 10.2255 9.80918 10.9458ZM10.8923 10.9458L10.8968 11.1316C10.917 11.5623 11.0074 11.9719 11.1691 12.3602C11.354 12.7855 11.604 13.165 11.9183 13.4978C12.2512 13.8122 12.6306 14.0621 13.0559 14.247C13.4442 14.4088 13.8538 14.5 14.2846 14.5203L14.4703 14.5247C14.8909 14.5247 15.2905 14.4537 15.6686 14.3122L15.8303 14.247C16.2555 14.0621 16.625 13.8121 16.9393 13.4978C17.2722 13.165 17.5312 12.7856 17.7162 12.3602C17.8779 11.9719 17.9692 11.5624 17.9894 11.1316L17.9939 10.9458C17.9939 10.2986 17.8175 9.69778 17.4661 9.14298C17.1148 8.56969 16.6711 8.126 16.1348 7.81161C16.248 7.09957 16.3971 6.46504 16.5812 5.90876L16.6625 5.67481C16.8843 5.06485 17.1059 4.54719 17.3277 4.12199C17.5866 3.64127 17.8641 3.2066 18.1599 2.8183L15.0534 1.73606C14.1287 2.60526 13.3884 3.52108 12.8336 4.48274C12.2974 5.42575 11.8811 6.32259 11.5852 7.17316C11.2894 8.00521 11.0955 8.74493 11.003 9.39211L10.92 10.1833C10.9015 10.3956 10.8923 10.5572 10.8923 10.6681V10.9458Z" fill="#B0ACA7"/>
</svg>
