<svg width="13" height="14" viewBox="0 0 13 14" fill="none" xmlns="http://www.w3.org/2000/svg">
<path d="M11.0986 10.2295C11.0985 8.47435 9.67661 7.05188 7.92184 7.05172H2.20699L4.53512 9.37985C4.73038 9.57511 4.73038 9.89161 4.53512 10.0869C4.33986 10.2821 4.02335 10.2821 3.82809 10.0869L0.646447 6.90524C0.451184 6.70997 0.451184 6.39347 0.646447 6.1982L3.82809 3.01656C4.02335 2.8213 4.33986 2.8213 4.53512 3.01656C4.73038 3.21183 4.73038 3.52833 4.53512 3.7236L2.20699 6.05172H7.92184C10.2292 6.05188 12.0985 7.92239 12.0986 10.2295C12.0986 10.5056 11.8747 10.7295 11.5986 10.7295C11.3225 10.7295 11.0986 10.5056 11.0986 10.2295Z" fill="#616161"/>
</svg>
