<svg width="41" height="41" viewBox="0 0 41 41" fill="none" xmlns="http://www.w3.org/2000/svg">
<path d="M8.43498 5.44404C14.0569 1.37132 21.8813 1.17054 27.7917 5.48395M8.28873 2.84926L7.65601 5.77403L10.4226 7.13794M28.3276 2.84929L28.949 5.7765L26.1771 7.12968M16.1387 20.7588C16.1387 19.571 15.1759 18.6082 13.988 18.6082C12.8001 18.6082 11.8373 19.571 11.8373 20.7588V27.9277C11.8373 33.8664 16.6519 38.6811 22.5907 38.6811C28.5294 38.6811 33.344 33.8664 33.344 27.9277V22.9095C33.344 21.7216 32.3812 20.7588 31.1933 20.7588C30.0054 20.7588 29.0427 21.7216 29.0427 22.9095V21.4757C29.0427 20.2879 28.0799 19.3251 26.892 19.3251C25.7041 19.3251 24.7413 20.2879 24.7413 21.4757V20.042C24.7413 18.8541 23.7785 17.8913 22.5907 17.8913C21.4028 17.8913 20.44 18.8541 20.44 20.042V9.28863C20.44 8.10074 19.4772 7.13796 18.2893 7.13796C17.1014 7.13796 16.1387 8.10074 16.1387 9.28863V27.2108V20.7588Z" stroke="black" stroke-width="2" stroke-miterlimit="10" stroke-linecap="round" stroke-linejoin="round"/>
</svg>
