<svg width="25" height="25" viewBox="0 0 25 25" fill="none" xmlns="http://www.w3.org/2000/svg">
<path d="M19.5453 12.8123C19.5453 16.9621 16.1813 20.3262 12.0315 20.3262C7.88172 20.3262 4.51767 16.9621 4.51767 12.8123C4.51767 8.66257 7.88172 5.29852 12.0315 5.29852C16.1813 5.29852 19.5453 8.66257 19.5453 12.8123Z" fill="white"/>
<path d="M8.86637 24.0098L6.86828 20.4843L3.08244 19.603L3.4505 15.5267L0.874023 12.4419L3.4505 9.35713L3.08244 5.28083L6.86828 4.39947L8.86637 0.874023L12.4419 2.47149L16.0174 0.874023L18.0155 4.39947L21.8014 5.28083L21.4333 9.35713L24.0098 12.4419L21.4333 15.5267L21.8014 19.603L18.0155 20.4843L16.0174 24.0098L12.4419 22.4123L8.86637 24.0098ZM11.3377 16.3529L17.2794 10.1283L15.8071 8.53085L11.3377 13.2131L9.0767 10.8995L7.60442 12.4419L11.3377 16.3529Z" fill="black"/>
</svg>
